<svg version="1.2" baseProfile="tiny" id="Layer_1" xmlns="http://www.w3.org/2000/svg" xmlns:xlink="http://www.w3.org/1999/xlink"
	 x="100px" y="100px" viewBox="0 0 750 1334" xml:space="preserve">
<rect x="353.4" y="212.7" fill="none" width="301.3" height="315.4"/>
<g>
	<g>
		<path stroke="#000000" stroke-width="0.25" stroke-miterlimit="10" d="M181.8,543.6c-2.3,6.4-6.8,12.2-16.9,12.2
			c-9.5,0-14.2-6.2-14.2-16.2c0-10.8,6.1-26.4,20.4-26.4c9.4,0,13.4,6,13.3,13.3h-5.4c-0.3-4.8-2.4-8.6-8.5-8.6
			c-9.5,0-14,12.4-14,21.3c0,7.3,2.8,12,8.9,12c5.5,0,8.4-2.7,10.7-7.5H181.8z"/>
		<path stroke="#000000" stroke-width="0.25" stroke-miterlimit="10" d="M218.7,535.6c0,8.9-4.5,20-16,20c-7.8,0-11.2-5.1-11.2-12
			c0-8.2,4.7-19.6,16.2-19.6C215.1,524,218.7,528.9,218.7,535.6z M197.2,543.5c0,4.6,1.7,7.7,6.1,7.7c7,0,9.9-9.3,9.9-15.4
			c0-4.7-1.9-7.3-6.1-7.3C200.2,528.5,197.2,537.3,197.2,543.5z"/>
		<path stroke="#000000" stroke-width="0.25" stroke-miterlimit="10" d="M226.3,555.1l9.2-43.7h5.4l-9.2,43.7H226.3z"/>
		<path stroke="#000000" stroke-width="0.25" stroke-miterlimit="10" d="M272.7,535.6c0,8.9-4.5,20-16,20c-7.8,0-11.2-5.1-11.2-12
			c0-8.2,4.7-19.6,16.2-19.6C269,524,272.7,528.9,272.7,535.6z M251.1,543.5c0,4.6,1.7,7.7,6.1,7.7c7,0,9.9-9.3,9.9-15.4
			c0-4.7-1.9-7.3-6.1-7.3C254.2,528.5,251.1,537.3,251.1,543.5z"/>
		<path stroke="#000000" stroke-width="0.25" stroke-miterlimit="10" d="M284.5,534.9c1-4.9,1.7-8.2,2-10.3h5.2
			c-0.1,0.8-0.5,3.8-1,6c2.3-4.1,5.9-6.5,10.8-6.5l-1.2,5.6c-6.5,0.2-10.2,3.9-11.6,10.7l-3.1,14.6h-5.4L284.5,534.9z"/>
		<path stroke="#000000" stroke-width="0.25" stroke-miterlimit="10" d="M331.4,543c0.5,5.6,3.8,8.3,8.8,8.3c4.7,0,8.1-2.6,8.1-7.3
			c0-3.8-2.1-5.7-7.5-8.4c-7-3.3-9.9-5.8-9.9-11.1c0-6.4,4.7-11.2,12.8-11.2c9,0,12.9,5.4,12.8,11.8H351c-0.2-4.7-2.8-7.4-7.7-7.4
			c-4.3,0-6.8,2.4-6.8,6.2c0,3.3,2,4.7,7,7.1c8.2,3.9,10.6,7.1,10.6,12.3c0,7.1-4.9,12.5-14.4,12.5c-9.7,0-13.4-5.5-13.8-12.6H331.4
			z"/>
		<path stroke="#000000" stroke-width="0.25" stroke-miterlimit="10" d="M371.6,538.1c3.6-3.5,9.9-9.2,14.3-13.6h6.6
			c-4,3.9-8.6,8-12.8,11.8c2.5,6,5,12.8,7.5,18.7h-5.8c-1.5-3.7-4.1-10.8-5.8-15.2c-1.3,1.2-3.8,3.1-5.2,4.3l-2.3,10.8h-5.4
			l9.2-43.7h5.4L371.6,538.1z"/>
		<path stroke="#000000" stroke-width="0.25" stroke-miterlimit="10" d="M401,540.9c-0.2,0.9-0.3,2-0.3,3.2c0,4.1,1.6,7.1,5.9,7.1
			c4.7,0,6.2-3.2,7.3-5.1h5.4c-1.7,4.3-5,9.5-13.2,9.5c-7.7,0-10.7-4.9-10.7-11.7c0-8,4.5-19.9,15.7-19.9c7.3,0,10.4,4.8,10.4,10.6
			c0,1.8-0.3,3.9-0.9,6.3H401z M415.9,537.1c0.2-0.9,0.3-1.6,0.3-2.5c0-3.7-1.7-6.3-5.7-6.3c-4.8,0-7.5,4.5-8.5,8.8H415.9z"/>
		<path stroke="#000000" stroke-width="0.25" stroke-miterlimit="10" d="M433.2,534.1c1.2-5.5,1.7-8.1,2-9.5h5.2
			c-0.1,0.9-0.4,3-0.7,4.3c2-2.8,4.6-4.9,8.8-4.9c4.2,0,6.1,2.5,6.5,5.1c1.9-2.7,5-5.1,9.4-5.1c4.9,0,8.8,2.8,7.1,11.2l-4.2,19.8
			h-5.3l4.1-19.6c0.8-3.5,0.3-6.9-3.7-6.9c-4.4,0-6.9,3.8-7.9,8.9l-3.7,17.6h-5.3l4-19.2c0.9-4.2,0.3-7.2-3.6-7.2
			c-4,0-6.7,3.3-8,9.4l-3.6,17.1h-5.3L433.2,534.1z"/>
		<path stroke="#000000" stroke-width="0.25" stroke-miterlimit="10" d="M486.7,540.9c-0.2,0.9-0.3,2-0.3,3.2c0,4.1,1.6,7.1,5.9,7.1
			c4.7,0,6.2-3.2,7.3-5.1h5.4c-1.7,4.3-5,9.5-13.2,9.5c-7.7,0-10.7-4.9-10.7-11.7c0-8,4.5-19.9,15.7-19.9c7.3,0,10.4,4.8,10.4,10.6
			c0,1.8-0.3,3.9-0.9,6.3H486.7z M501.5,537.1c0.2-0.9,0.3-1.6,0.3-2.5c0-3.7-1.7-6.3-5.7-6.3c-4.8,0-7.5,4.5-8.5,8.8H501.5z"/>
	</g>
</g>
</svg>
